<mxfile host="app.diagrams.net" agent="Mozilla/5.0 (Macintosh; Intel Mac OS X 10_15_7) AppleWebKit/605.1.15 (KHTML, like Gecko) Version/18.6 Safari/605.1.15" version="28.2.4">
  <diagram name="Page-1" id="LXvSIFE73cKmkCunh1-N">
    <mxGraphModel dx="2276" dy="1932" grid="1" gridSize="10" guides="1" tooltips="1" connect="1" arrows="1" fold="1" page="1" pageScale="1" pageWidth="850" pageHeight="1100" math="0" shadow="0">
      <root>
        <mxCell id="0" />
        <mxCell id="1" parent="0" />
        <mxCell id="ZWWSb4Xv8tx2vGRpMRyp-1" value="" style="ellipse;shape=cloud;whiteSpace=wrap;html=1;dashed=1;dashPattern=1 2;fillStyle=dashed;fillColor=light-dark(#CCCCCC,#B3B3B3);gradientColor=none;strokeColor=none;" vertex="1" parent="1">
          <mxGeometry x="-141.39" y="-180" width="1081.39" height="870" as="geometry" />
        </mxCell>
        <mxCell id="ZWWSb4Xv8tx2vGRpMRyp-2" style="edgeStyle=orthogonalEdgeStyle;rounded=0;orthogonalLoop=1;jettySize=auto;html=1;exitX=0;exitY=1;exitDx=0;exitDy=0;entryX=1;entryY=0;entryDx=0;entryDy=0;dashed=1;dashPattern=8 8;curved=1;strokeColor=#007FFF;" edge="1" parent="1" source="ZWWSb4Xv8tx2vGRpMRyp-4" target="ZWWSb4Xv8tx2vGRpMRyp-18">
          <mxGeometry relative="1" as="geometry" />
        </mxCell>
        <mxCell id="ZWWSb4Xv8tx2vGRpMRyp-3" style="edgeStyle=orthogonalEdgeStyle;rounded=0;orthogonalLoop=1;jettySize=auto;html=1;exitX=1;exitY=0;exitDx=0;exitDy=0;entryX=0.093;entryY=0.811;entryDx=0;entryDy=0;curved=1;dashed=1;dashPattern=12 12;strokeColor=#CC00CC;entryPerimeter=0;" edge="1" parent="1" source="ZWWSb4Xv8tx2vGRpMRyp-4" target="ZWWSb4Xv8tx2vGRpMRyp-11">
          <mxGeometry relative="1" as="geometry">
            <Array as="points">
              <mxPoint x="620" y="209" />
              <mxPoint x="620" y="120" />
              <mxPoint x="625" y="120" />
              <mxPoint x="625" y="109" />
            </Array>
          </mxGeometry>
        </mxCell>
        <mxCell id="ZWWSb4Xv8tx2vGRpMRyp-4" value="&lt;b&gt;&lt;font style=&quot;font-size: 15px;&quot;&gt;Counter&lt;/font&gt;&lt;/b&gt;" style="ellipse;whiteSpace=wrap;html=1;strokeWidth=2;fillWeight=2;hachureGap=8;fillColor=#EA6B66;fillStyle=dots;sketch=1;" vertex="1" parent="1">
          <mxGeometry x="480" y="200" width="120" height="60" as="geometry" />
        </mxCell>
        <mxCell id="ZWWSb4Xv8tx2vGRpMRyp-5" style="edgeStyle=orthogonalEdgeStyle;rounded=1;orthogonalLoop=1;jettySize=auto;html=1;exitX=1;exitY=0;exitDx=0;exitDy=0;entryX=0;entryY=1;entryDx=0;entryDy=0;curved=1;dashed=1;dashPattern=12 12;strokeColor=#CC00CC;" edge="1" parent="1" source="ZWWSb4Xv8tx2vGRpMRyp-6" target="ZWWSb4Xv8tx2vGRpMRyp-11">
          <mxGeometry relative="1" as="geometry" />
        </mxCell>
        <mxCell id="ZWWSb4Xv8tx2vGRpMRyp-6" value="&lt;b&gt;&lt;font style=&quot;font-size: 15px;&quot;&gt;Counter&lt;/font&gt;&lt;/b&gt;" style="ellipse;whiteSpace=wrap;html=1;strokeWidth=2;fillWeight=2;hachureGap=8;fillColor=#EA6B66;fillStyle=dots;sketch=1;" vertex="1" parent="1">
          <mxGeometry x="480" y="295" width="120" height="60" as="geometry" />
        </mxCell>
        <mxCell id="ZWWSb4Xv8tx2vGRpMRyp-7" value="&lt;b&gt;&lt;font style=&quot;font-size: 15px;&quot;&gt;Counter&lt;/font&gt;&lt;/b&gt;" style="ellipse;whiteSpace=wrap;html=1;strokeWidth=2;fillWeight=2;hachureGap=8;fillColor=#EA6B66;fillStyle=dots;sketch=1;" vertex="1" parent="1">
          <mxGeometry x="480" y="490" width="120" height="60" as="geometry" />
        </mxCell>
        <mxCell id="ZWWSb4Xv8tx2vGRpMRyp-8" value="" style="shape=waypoint;sketch=0;fillStyle=solid;size=6;pointerEvents=1;points=[];fillColor=none;resizable=0;rotatable=0;perimeter=centerPerimeter;snapToPoint=1;" vertex="1" parent="1">
          <mxGeometry x="530" y="380" width="20" height="20" as="geometry" />
        </mxCell>
        <mxCell id="ZWWSb4Xv8tx2vGRpMRyp-9" value="" style="shape=waypoint;sketch=0;fillStyle=solid;size=6;pointerEvents=1;points=[];fillColor=none;resizable=0;rotatable=0;perimeter=centerPerimeter;snapToPoint=1;" vertex="1" parent="1">
          <mxGeometry x="530" y="410" width="20" height="20" as="geometry" />
        </mxCell>
        <mxCell id="ZWWSb4Xv8tx2vGRpMRyp-10" value="" style="shape=waypoint;sketch=0;fillStyle=solid;size=6;pointerEvents=1;points=[];fillColor=none;resizable=0;rotatable=0;perimeter=centerPerimeter;snapToPoint=1;" vertex="1" parent="1">
          <mxGeometry x="530" y="440" width="20" height="20" as="geometry" />
        </mxCell>
        <mxCell id="ZWWSb4Xv8tx2vGRpMRyp-11" value="&lt;b&gt;&lt;font style=&quot;font-size: 15px;&quot;&gt;Agg&lt;/font&gt;&lt;/b&gt;" style="ellipse;whiteSpace=wrap;html=1;strokeWidth=2;fillWeight=2;hachureGap=8;fillColor=#00CC66;fillStyle=dots;sketch=1;" vertex="1" parent="1">
          <mxGeometry x="650" y="60" width="120" height="60" as="geometry" />
        </mxCell>
        <mxCell id="ZWWSb4Xv8tx2vGRpMRyp-12" style="edgeStyle=orthogonalEdgeStyle;rounded=0;orthogonalLoop=1;jettySize=auto;html=1;entryX=0;entryY=0.5;entryDx=0;entryDy=0;curved=1;dashed=1;dashPattern=8 4 1 4;exitX=0.5;exitY=0;exitDx=0;exitDy=0;" edge="1" parent="1" source="ZWWSb4Xv8tx2vGRpMRyp-18" target="ZWWSb4Xv8tx2vGRpMRyp-4">
          <mxGeometry relative="1" as="geometry">
            <Array as="points">
              <mxPoint x="260" y="230" />
            </Array>
          </mxGeometry>
        </mxCell>
        <mxCell id="ZWWSb4Xv8tx2vGRpMRyp-13" style="edgeStyle=orthogonalEdgeStyle;rounded=0;orthogonalLoop=1;jettySize=auto;html=1;entryX=0;entryY=0.5;entryDx=0;entryDy=0;curved=1;dashed=1;dashPattern=8 4 1 4;" edge="1" parent="1" source="ZWWSb4Xv8tx2vGRpMRyp-18" target="ZWWSb4Xv8tx2vGRpMRyp-6">
          <mxGeometry relative="1" as="geometry" />
        </mxCell>
        <mxCell id="ZWWSb4Xv8tx2vGRpMRyp-14" style="edgeStyle=orthogonalEdgeStyle;rounded=0;orthogonalLoop=1;jettySize=auto;html=1;entryX=0;entryY=0.5;entryDx=0;entryDy=0;dashed=1;curved=1;exitX=1;exitY=1;exitDx=0;exitDy=0;" edge="1" parent="1" source="ZWWSb4Xv8tx2vGRpMRyp-18" target="ZWWSb4Xv8tx2vGRpMRyp-7">
          <mxGeometry relative="1" as="geometry">
            <Array as="points">
              <mxPoint x="320" y="381" />
              <mxPoint x="320" y="520" />
            </Array>
          </mxGeometry>
        </mxCell>
        <mxCell id="ZWWSb4Xv8tx2vGRpMRyp-15" style="edgeStyle=orthogonalEdgeStyle;rounded=0;orthogonalLoop=1;jettySize=auto;html=1;exitX=0.5;exitY=0;exitDx=0;exitDy=0;entryX=0.5;entryY=0;entryDx=0;entryDy=0;dashed=1;dashPattern=8 4 1 4;curved=1;fillColor=#f8cecc;strokeColor=#FF0000;" edge="1" parent="1" source="ZWWSb4Xv8tx2vGRpMRyp-18" target="ZWWSb4Xv8tx2vGRpMRyp-4">
          <mxGeometry relative="1" as="geometry">
            <Array as="points">
              <mxPoint x="220" y="170" />
              <mxPoint x="540" y="170" />
            </Array>
          </mxGeometry>
        </mxCell>
        <mxCell id="ZWWSb4Xv8tx2vGRpMRyp-16" style="edgeStyle=orthogonalEdgeStyle;rounded=0;orthogonalLoop=1;jettySize=auto;html=1;entryX=0;entryY=0;entryDx=0;entryDy=0;curved=1;exitX=0.237;exitY=0.046;exitDx=0;exitDy=0;exitPerimeter=0;dashed=1;dashPattern=8 4 1 4;strokeColor=#FF0000;" edge="1" parent="1" source="ZWWSb4Xv8tx2vGRpMRyp-18" target="ZWWSb4Xv8tx2vGRpMRyp-11">
          <mxGeometry relative="1" as="geometry">
            <mxPoint x="463" y="-90" as="sourcePoint" />
            <Array as="points">
              <mxPoint x="180" y="293" />
              <mxPoint x="180" y="30" />
              <mxPoint x="667" y="30" />
            </Array>
          </mxGeometry>
        </mxCell>
        <mxCell id="ZWWSb4Xv8tx2vGRpMRyp-17" style="edgeStyle=orthogonalEdgeStyle;rounded=0;orthogonalLoop=1;jettySize=auto;html=1;entryX=0;entryY=0.5;entryDx=0;entryDy=0;curved=1;" edge="1" parent="1" source="ZWWSb4Xv8tx2vGRpMRyp-18" target="ZWWSb4Xv8tx2vGRpMRyp-11">
          <mxGeometry relative="1" as="geometry">
            <Array as="points">
              <mxPoint x="220" y="120" />
              <mxPoint x="465" y="120" />
              <mxPoint x="465" y="90" />
            </Array>
          </mxGeometry>
        </mxCell>
        <mxCell id="ZWWSb4Xv8tx2vGRpMRyp-18" value="&lt;b&gt;&lt;font style=&quot;font-size: 15px;&quot;&gt;Master&lt;/font&gt;&lt;/b&gt;" style="ellipse;whiteSpace=wrap;html=1;strokeWidth=2;fillWeight=2;hachureGap=8;fillColor=#66B2FF;fillStyle=dots;sketch=1;" vertex="1" parent="1">
          <mxGeometry x="160" y="290" width="120" height="60" as="geometry" />
        </mxCell>
        <mxCell id="ZWWSb4Xv8tx2vGRpMRyp-19" value="&lt;b&gt;Count&lt;/b&gt;" style="text;html=1;align=center;verticalAlign=middle;resizable=0;points=[];autosize=1;strokeColor=none;fillColor=none;" vertex="1" parent="1">
          <mxGeometry x="320" y="208" width="60" height="30" as="geometry" />
        </mxCell>
        <mxCell id="ZWWSb4Xv8tx2vGRpMRyp-20" value="&lt;b&gt;Count&lt;/b&gt;" style="text;html=1;align=center;verticalAlign=middle;resizable=0;points=[];autosize=1;strokeColor=none;fillColor=none;" vertex="1" parent="1">
          <mxGeometry x="385" y="295" width="60" height="30" as="geometry" />
        </mxCell>
        <mxCell id="ZWWSb4Xv8tx2vGRpMRyp-21" value="&lt;b&gt;Count&lt;/b&gt;" style="text;html=1;align=center;verticalAlign=middle;resizable=0;points=[];autosize=1;strokeColor=none;fillColor=none;" vertex="1" parent="1">
          <mxGeometry x="380" y="490" width="60" height="30" as="geometry" />
        </mxCell>
        <mxCell id="ZWWSb4Xv8tx2vGRpMRyp-22" value="&lt;b style=&quot;color: rgb(204, 0, 204);&quot;&gt;Agg&lt;/b&gt;" style="text;html=1;align=center;verticalAlign=middle;resizable=0;points=[];autosize=1;strokeColor=none;fillColor=none;" vertex="1" parent="1">
          <mxGeometry x="570" y="170" width="50" height="30" as="geometry" />
        </mxCell>
        <mxCell id="ZWWSb4Xv8tx2vGRpMRyp-23" value="&lt;b style=&quot;color: rgb(204, 0, 204);&quot;&gt;Agg&lt;/b&gt;" style="text;html=1;align=center;verticalAlign=middle;resizable=0;points=[];autosize=1;strokeColor=none;fillColor=none;" vertex="1" parent="1">
          <mxGeometry x="570" y="260" width="50" height="30" as="geometry" />
        </mxCell>
        <mxCell id="ZWWSb4Xv8tx2vGRpMRyp-24" value="&lt;b style=&quot;color: rgb(204, 0, 204);&quot;&gt;Agg&lt;/b&gt;" style="text;html=1;align=center;verticalAlign=middle;resizable=0;points=[];autosize=1;strokeColor=none;fillColor=none;" vertex="1" parent="1">
          <mxGeometry x="575" y="445" width="50" height="30" as="geometry" />
        </mxCell>
        <mxCell id="ZWWSb4Xv8tx2vGRpMRyp-25" value="&lt;span style=&quot;color: rgb(0, 127, 255);&quot;&gt;&lt;b&gt;Done&lt;/b&gt;&lt;/span&gt;" style="text;html=1;align=center;verticalAlign=middle;resizable=0;points=[];autosize=1;strokeColor=none;fillColor=none;" vertex="1" parent="1">
          <mxGeometry x="440" y="250" width="50" height="30" as="geometry" />
        </mxCell>
        <mxCell id="ZWWSb4Xv8tx2vGRpMRyp-26" style="edgeStyle=orthogonalEdgeStyle;rounded=0;orthogonalLoop=1;jettySize=auto;html=1;exitX=0;exitY=1;exitDx=0;exitDy=0;entryX=0.933;entryY=0.742;entryDx=0;entryDy=0;entryPerimeter=0;curved=1;dashed=1;dashPattern=8 8;strokeColor=#007FFF;" edge="1" parent="1" source="ZWWSb4Xv8tx2vGRpMRyp-6" target="ZWWSb4Xv8tx2vGRpMRyp-18">
          <mxGeometry relative="1" as="geometry" />
        </mxCell>
        <mxCell id="ZWWSb4Xv8tx2vGRpMRyp-27" value="&lt;span style=&quot;color: rgb(0, 127, 255);&quot;&gt;&lt;b&gt;Done&lt;/b&gt;&lt;/span&gt;" style="text;html=1;align=center;verticalAlign=middle;resizable=0;points=[];autosize=1;strokeColor=none;fillColor=none;" vertex="1" parent="1">
          <mxGeometry x="425" y="320" width="50" height="30" as="geometry" />
        </mxCell>
        <mxCell id="ZWWSb4Xv8tx2vGRpMRyp-28" style="edgeStyle=orthogonalEdgeStyle;rounded=0;orthogonalLoop=1;jettySize=auto;html=1;exitX=0;exitY=1;exitDx=0;exitDy=0;entryX=0.635;entryY=0.964;entryDx=0;entryDy=0;entryPerimeter=0;curved=1;dashed=1;dashPattern=8 8;strokeColor=#007FFF;" edge="1" parent="1" source="ZWWSb4Xv8tx2vGRpMRyp-7" target="ZWWSb4Xv8tx2vGRpMRyp-18">
          <mxGeometry relative="1" as="geometry" />
        </mxCell>
        <mxCell id="ZWWSb4Xv8tx2vGRpMRyp-29" value="&lt;span style=&quot;color: rgb(0, 127, 255);&quot;&gt;&lt;b&gt;Done&lt;/b&gt;&lt;/span&gt;" style="text;html=1;align=center;verticalAlign=middle;resizable=0;points=[];autosize=1;strokeColor=none;fillColor=none;" vertex="1" parent="1">
          <mxGeometry x="310" y="510" width="50" height="30" as="geometry" />
        </mxCell>
        <mxCell id="ZWWSb4Xv8tx2vGRpMRyp-30" value="&lt;b style=&quot;color: rgb(255, 0, 0);&quot;&gt;Poison&lt;/b&gt;" style="text;html=1;align=center;verticalAlign=middle;resizable=0;points=[];autosize=1;strokeColor=none;fillColor=none;" vertex="1" parent="1">
          <mxGeometry x="290" y="148" width="60" height="30" as="geometry" />
        </mxCell>
        <mxCell id="ZWWSb4Xv8tx2vGRpMRyp-31" style="edgeStyle=orthogonalEdgeStyle;rounded=0;orthogonalLoop=1;jettySize=auto;html=1;exitX=1;exitY=1;exitDx=0;exitDy=0;entryX=0.329;entryY=1.019;entryDx=0;entryDy=0;entryPerimeter=0;curved=1;dashed=1;dashPattern=8 4 1 4;strokeColor=#FF0000;" edge="1" parent="1" source="ZWWSb4Xv8tx2vGRpMRyp-18" target="ZWWSb4Xv8tx2vGRpMRyp-6">
          <mxGeometry relative="1" as="geometry" />
        </mxCell>
        <mxCell id="ZWWSb4Xv8tx2vGRpMRyp-32" value="&lt;b style=&quot;color: rgb(255, 0, 0);&quot;&gt;Poison&lt;/b&gt;" style="text;html=1;align=center;verticalAlign=middle;resizable=0;points=[];autosize=1;strokeColor=none;fillColor=none;" vertex="1" parent="1">
          <mxGeometry x="350" y="350" width="60" height="30" as="geometry" />
        </mxCell>
        <mxCell id="ZWWSb4Xv8tx2vGRpMRyp-33" style="edgeStyle=orthogonalEdgeStyle;rounded=0;orthogonalLoop=1;jettySize=auto;html=1;exitX=0.5;exitY=1;exitDx=0;exitDy=0;entryX=0.274;entryY=0.936;entryDx=0;entryDy=0;entryPerimeter=0;curved=1;dashed=1;dashPattern=8 4 1 4;strokeColor=#FF0000;" edge="1" parent="1" source="ZWWSb4Xv8tx2vGRpMRyp-18" target="ZWWSb4Xv8tx2vGRpMRyp-7">
          <mxGeometry relative="1" as="geometry">
            <Array as="points">
              <mxPoint x="220" y="590" />
              <mxPoint x="513" y="590" />
            </Array>
          </mxGeometry>
        </mxCell>
        <mxCell id="ZWWSb4Xv8tx2vGRpMRyp-34" value="&lt;b style=&quot;color: rgb(255, 0, 0);&quot;&gt;Poison&lt;/b&gt;" style="text;html=1;align=center;verticalAlign=middle;resizable=0;points=[];autosize=1;strokeColor=none;fillColor=none;" vertex="1" parent="1">
          <mxGeometry x="365" y="560" width="60" height="30" as="geometry" />
        </mxCell>
        <mxCell id="ZWWSb4Xv8tx2vGRpMRyp-35" style="edgeStyle=orthogonalEdgeStyle;rounded=0;orthogonalLoop=1;jettySize=auto;html=1;exitX=1;exitY=0;exitDx=0;exitDy=0;entryX=0.315;entryY=1.006;entryDx=0;entryDy=0;entryPerimeter=0;curved=1;dashed=1;dashPattern=8 8;strokeColor=#CC00CC;" edge="1" parent="1" source="ZWWSb4Xv8tx2vGRpMRyp-7" target="ZWWSb4Xv8tx2vGRpMRyp-11">
          <mxGeometry relative="1" as="geometry" />
        </mxCell>
        <mxCell id="ZWWSb4Xv8tx2vGRpMRyp-36" style="edgeStyle=orthogonalEdgeStyle;rounded=0;orthogonalLoop=1;jettySize=auto;html=1;entryX=0;entryY=0.5;entryDx=0;entryDy=0;" edge="1" parent="1" source="ZWWSb4Xv8tx2vGRpMRyp-37" target="ZWWSb4Xv8tx2vGRpMRyp-18">
          <mxGeometry relative="1" as="geometry">
            <Array as="points">
              <mxPoint x="90" y="341" />
              <mxPoint x="90" y="320" />
            </Array>
          </mxGeometry>
        </mxCell>
        <mxCell id="ZWWSb4Xv8tx2vGRpMRyp-37" value="" style="sketch=0;aspect=fixed;pointerEvents=1;shadow=0;dashed=0;html=1;strokeColor=none;labelPosition=center;verticalLabelPosition=bottom;verticalAlign=top;align=center;fillColor=#00188D;shape=mxgraph.azure.computer" vertex="1" parent="1">
          <mxGeometry x="-130" y="295" width="102.78" height="92.5" as="geometry" />
        </mxCell>
        <mxCell id="ZWWSb4Xv8tx2vGRpMRyp-38" value="&lt;b&gt;&lt;font style=&quot;font-size: 15px;&quot;&gt;Main&lt;/font&gt;&lt;/b&gt;" style="text;html=1;align=center;verticalAlign=middle;resizable=0;points=[];autosize=1;strokeColor=none;fillColor=none;" vertex="1" parent="1">
          <mxGeometry x="-108.61000000000001" y="317.5" width="60" height="30" as="geometry" />
        </mxCell>
        <mxCell id="ZWWSb4Xv8tx2vGRpMRyp-39" style="edgeStyle=isometricEdgeStyle;rounded=0;orthogonalLoop=1;jettySize=auto;html=1;entryX=0;entryY=1;entryDx=0;entryDy=0;dashed=1;dashPattern=1 2;strokeColor=light-dark(#7F00FF,#131313);strokeWidth=2;" edge="1" parent="1" source="ZWWSb4Xv8tx2vGRpMRyp-40" target="ZWWSb4Xv8tx2vGRpMRyp-18">
          <mxGeometry relative="1" as="geometry">
            <Array as="points">
              <mxPoint x="150" y="430" />
            </Array>
          </mxGeometry>
        </mxCell>
        <mxCell id="ZWWSb4Xv8tx2vGRpMRyp-40" value="&lt;font style=&quot;font-size: 22px;&quot;&gt;&lt;b&gt;System&lt;/b&gt;&lt;/font&gt;" style="text;html=1;align=center;verticalAlign=middle;resizable=0;points=[];autosize=1;strokeColor=none;fillColor=none;" vertex="1" parent="1">
          <mxGeometry x="95" y="470" width="100" height="40" as="geometry" />
        </mxCell>
        <mxCell id="ZWWSb4Xv8tx2vGRpMRyp-41" style="edgeStyle=orthogonalEdgeStyle;rounded=0;orthogonalLoop=1;jettySize=auto;html=1;exitX=0;exitY=0;exitDx=0;exitDy=0;entryX=0.992;entryY=0.243;entryDx=0;entryDy=0;entryPerimeter=0;dashed=1;dashPattern=8 4 1 4;strokeColor=#FF9933;strokeWidth=1;" edge="1" parent="1" source="ZWWSb4Xv8tx2vGRpMRyp-18" target="ZWWSb4Xv8tx2vGRpMRyp-37">
          <mxGeometry relative="1" as="geometry" />
        </mxCell>
        <mxCell id="ZWWSb4Xv8tx2vGRpMRyp-42" value="&lt;b style=&quot;color: rgb(255, 0, 0);&quot;&gt;Poison&lt;/b&gt;" style="text;html=1;align=center;verticalAlign=middle;resizable=0;points=[];autosize=1;strokeColor=none;fillColor=none;" vertex="1" parent="1">
          <mxGeometry x="270" y="10" width="60" height="30" as="geometry" />
        </mxCell>
        <mxCell id="ZWWSb4Xv8tx2vGRpMRyp-43" style="edgeStyle=orthogonalEdgeStyle;rounded=0;orthogonalLoop=1;jettySize=auto;html=1;exitX=0;exitY=0.5;exitDx=0;exitDy=0;entryX=0.306;entryY=0.046;entryDx=0;entryDy=0;entryPerimeter=0;curved=1;dashed=1;dashPattern=1 2;strokeColor=#4D9900;" edge="1" parent="1" source="ZWWSb4Xv8tx2vGRpMRyp-11" target="ZWWSb4Xv8tx2vGRpMRyp-18">
          <mxGeometry relative="1" as="geometry">
            <Array as="points">
              <mxPoint x="650" y="60" />
              <mxPoint x="197" y="60" />
            </Array>
          </mxGeometry>
        </mxCell>
        <mxCell id="ZWWSb4Xv8tx2vGRpMRyp-44" value="&lt;b style=&quot;color: rgb(77, 153, 0);&quot;&gt;Answer&lt;/b&gt;" style="text;html=1;align=center;verticalAlign=middle;resizable=0;points=[];autosize=1;strokeColor=none;fillColor=none;" vertex="1" parent="1">
          <mxGeometry x="215" y="75" width="70" height="30" as="geometry" />
        </mxCell>
        <mxCell id="ZWWSb4Xv8tx2vGRpMRyp-45" value="&lt;b&gt;Query&lt;/b&gt;" style="text;html=1;align=center;verticalAlign=middle;resizable=0;points=[];autosize=1;strokeColor=none;fillColor=none;" vertex="1" parent="1">
          <mxGeometry x="445" y="105" width="60" height="30" as="geometry" />
        </mxCell>
        <mxCell id="ZWWSb4Xv8tx2vGRpMRyp-46" value="&lt;b&gt;Query&lt;/b&gt;" style="text;html=1;align=center;verticalAlign=middle;resizable=0;points=[];autosize=1;strokeColor=none;fillColor=none;" vertex="1" parent="1">
          <mxGeometry x="30" y="347.5" width="60" height="30" as="geometry" />
        </mxCell>
        <mxCell id="ZWWSb4Xv8tx2vGRpMRyp-47" value="&lt;b style=&quot;color: rgb(255, 153, 51);&quot;&gt;AnswerRange&lt;/b&gt;" style="text;html=1;align=center;verticalAlign=middle;resizable=0;points=[];autosize=1;strokeColor=none;fillColor=none;" vertex="1" parent="1">
          <mxGeometry x="35" y="265" width="100" height="30" as="geometry" />
        </mxCell>
        <mxCell id="ZWWSb4Xv8tx2vGRpMRyp-48" value="&lt;span style=&quot;color: rgb(127, 0, 255);&quot;&gt;&lt;font&gt;&lt;b&gt;Terminated&lt;/b&gt;&lt;/font&gt;&lt;/span&gt;" style="text;html=1;align=center;verticalAlign=middle;resizable=0;points=[];autosize=1;strokeColor=none;fillColor=none;" vertex="1" parent="1">
          <mxGeometry x="105" y="380" width="90" height="30" as="geometry" />
        </mxCell>
      </root>
    </mxGraphModel>
  </diagram>
</mxfile>
